# Blender v2.77 (sub 0) OBJ File: 'miscminiprops_v5d.blend'
# www.blender.org
mtllib scLO.mtl
o Sandy_Cylinder
v 0.011890 0.006795 -0.367939
v 0.011890 0.785906 -0.331450
v 0.304815 -0.004203 -0.330556
v 0.219651 0.785906 -0.245392
v 0.426148 -0.004203 -0.037632
v 0.305708 0.785906 -0.037632
v 0.304815 -0.004203 0.255293
v 0.219651 0.785906 0.170129
v 0.011890 -0.004203 0.376627
v 0.018194 0.785906 0.253576
v -0.281035 -0.004203 0.255293
v -0.194070 0.785906 0.170875
v -0.402368 -0.004203 -0.037632
v -0.281928 0.785906 -0.037632
v -0.281035 -0.004203 -0.330556
v -0.195871 0.785906 -0.245392
v 0.160281 0.785906 -0.196227
v 0.007149 0.785906 -0.259657
v 0.223711 0.785906 -0.043095
v 0.160281 0.785906 0.110036
v 0.011795 0.785906 0.171541
v -0.144655 0.785906 0.110586
v -0.209412 0.785906 -0.043095
v -0.145983 0.785906 -0.196227
v 0.008132 0.785906 -0.042609
v 0.365481 -0.004203 -0.184094
v 0.262679 0.785906 -0.141512
v 0.191996 0.785906 -0.119661
v 0.158352 -0.004203 -0.391223
v 0.115770 0.785906 -0.288421
v 0.083715 0.785906 -0.227942
v -0.134572 -0.004203 -0.391223
v -0.091990 0.785906 -0.288421
v -0.069417 0.785906 -0.227942
v 0.365481 -0.004203 0.108831
v 0.262679 0.785906 0.066249
v 0.191996 0.785906 0.033471
v 0.158352 -0.004203 0.315960
v 0.086038 0.785906 0.140789
v 0.118922 0.785906 0.211852
v -0.134572 -0.004203 0.315960
v -0.066430 0.785906 0.141064
v -0.087938 0.785906 0.212225
v -0.341701 -0.004203 0.108831
v -0.237999 0.785906 0.066622
v -0.177034 0.785906 0.033745
v -0.341701 -0.004203 -0.184094
v -0.238899 0.785906 -0.141512
v -0.177697 0.785906 -0.119661
v 0.007783 0.785906 -0.119661
v 0.009436 0.785906 0.033607
v 0.011272 0.785906 0.140924
v 0.007293 0.785906 -0.227942
v 0.111424 0.892339 -0.278198
v 0.011829 0.892339 -0.319452
v 0.252274 0.892339 -0.137348
v 0.211020 0.892339 -0.236944
v 0.252274 0.892339 0.061843
v 0.293528 0.892339 -0.037753
v -0.227754 0.892339 0.062201
v -0.185636 0.892339 0.162154
v -0.228617 0.892339 -0.137348
v -0.269871 0.892339 -0.037753
v -0.087767 0.892339 -0.278198
v -0.187363 0.892339 -0.236944
v -0.063261 0.892339 0.133572
v 0.011738 0.892339 0.162793
v 0.154099 0.892339 -0.189807
v 0.007283 0.892339 -0.250620
v 0.211020 0.892339 0.161439
v 0.154099 0.892339 0.103825
v 0.017872 0.892339 0.241444
v -0.200346 0.892339 -0.042991
v 0.080691 0.892339 -0.220214
v 0.184506 0.892339 -0.116399
v 0.184506 0.892339 0.030417
v 0.214913 0.892339 -0.042991
v 0.082919 0.892339 0.133309
v -0.169939 0.892339 -0.116399
v -0.066125 0.892339 -0.220214
v -0.139533 0.892339 -0.189807
v 0.114446 0.892339 0.201441
v -0.083882 0.892339 0.201799
v -0.138260 0.892339 0.104352
v -0.169303 0.892339 0.030680
v 0.011890 0.421074 -0.391670
v 0.262233 0.390851 -0.287974
v 0.365928 0.390851 -0.037632
v 0.262233 0.390851 0.212711
v 0.015042 0.390851 0.315101
v -0.237552 0.390851 0.213084
v -0.342148 0.390851 -0.037632
v -0.238453 0.390851 -0.287974
v 0.314080 0.390851 -0.162803
v 0.137061 0.352646 -0.339822
v -0.113281 0.352646 -0.339822
v 0.314080 0.390851 0.087540
v 0.138637 0.390851 0.263906
v -0.111255 0.390851 0.264093
v -0.289850 0.390851 0.087726
v -0.290300 0.390851 -0.162803
v -0.134572 0.006795 -0.307273
v 0.158352 0.006795 -0.307273
v 0.137061 0.316054 -0.255872
v -0.113281 0.316054 -0.255872
v 0.011890 0.384482 -0.307719
vt 0.8751 0.3502
vt 0.7368 0.3660
vt 0.7337 0.3321
vt 0.8551 0.3115
vt 0.8439 0.2716
vt 0.7265 0.2993
vt 0.7191 0.2667
vt 0.8332 0.2324
vt 0.8187 0.1948
vt 0.7078 0.2356
vt 0.6965 0.2045
vt 0.8044 0.1575
vt 0.7864 0.1226
vt 0.6821 0.1760
vt 0.6677 0.1474
vt 0.7685 0.0877
vt 0.7974 0.6762
vt 0.6906 0.6280
vt 0.7045 0.5976
vt 0.8143 0.6399
vt 0.8271 0.6019
vt 0.7146 0.5659
vt 0.7247 0.5341
vt 0.8401 0.5637
vt 0.8478 0.8104
vt 0.8269 0.8317
vt 0.8140 0.8027
vt 0.8247 0.7944
vt 0.8491 0.5240
vt 0.7307 0.5013
vt 0.7366 0.4682
vt 0.8586 0.4838
vt 0.8771 0.4442
vt 0.7382 0.4342
vt 0.7395 0.4001
vt 0.8495 0.3978
vt 0.9773 0.8532
vt 0.9535 0.8534
vt 0.9705 0.8318
vt 0.9812 0.8380
vt 0.8117 0.8880
vt 0.7955 0.8993
vt 0.7788 0.8882
vt 0.7820 0.8790
vt 0.9593 0.9116
vt 0.9580 0.8832
vt 0.9869 0.8941
vt 0.9856 0.9062
vt 0.9098 0.8088
vt 0.8795 0.8064
vt 0.8943 0.7781
vt 0.9074 0.7811
vt 0.9771 0.9272
vt 0.9898 0.9180
vt 0.8617 0.9603
vt 0.8615 0.8963
vt 0.8905 0.9605
vt 0.8853 0.8847
vt 0.9213 0.9576
vt 0.9090 0.8739
vt 0.9448 0.8575
vt 0.9333 0.8305
vt 0.8092 0.8586
vt 0.8260 0.9144
vt 0.8171 0.9191
vt 0.8384 0.9393
vt 0.9411 0.9366
vt 0.9540 0.9642
vt 0.9437 0.9724
vt 0.9272 0.7938
vt 0.9196 0.7786
vt 0.9224 0.9804
vt 0.9016 0.9792
vt 0.8469 0.9760
vt 0.8333 0.9594
vt 0.7964 0.9212
vt 0.9632 0.9421
vt 0.9789 0.8728
vt 0.9431 0.8097
vt 0.7806 0.7123
vt 0.6767 0.6583
vt 0.8476 0.7884
vt 0.8712 0.7864
vt 0.7928 0.8456
vt 0.8072 0.8267
vt 0.6952 0.3062
vt 0.7022 0.3377
vt 0.6802 0.3359
vt 0.6750 0.3127
vt 0.6781 0.2463
vt 0.6890 0.2762
vt 0.6657 0.2767
vt 0.6578 0.2547
vt 0.7045 0.3686
vt 0.7070 0.4013
vt 0.6867 0.3961
vt 0.6848 0.3721
vt 0.6540 0.1901
vt 0.6679 0.2175
vt 0.6442 0.2194
vt 0.6340 0.1992
vt 0.6621 0.6149
vt 0.6487 0.6440
vt 0.6340 0.6262
vt 0.6438 0.6047
vt 0.6846 0.5563
vt 0.6749 0.5867
vt 0.6595 0.5710
vt 0.6667 0.5487
vt 0.7058 0.4326
vt 0.7042 0.4652
vt 0.6859 0.4564
vt 0.6870 0.4323
vt 0.6995 0.4956
vt 0.6937 0.5270
vt 0.6772 0.5145
vt 0.6815 0.4913
vt 0.8305 0.7840
vt 0.9614 0.8110
vt 0.9635 0.8209
vt 0.7826 0.8658
vt 0.8893 0.9934
vt 0.8795 0.9887
vt 0.9645 0.9605
vt 0.8856 0.7727
vt 0.8143 0.9616
vt 0.8106 0.9522
vt 0.9383 0.9834
vt 0.9916 0.8849
vt 0.8025 0.9420
vt 0.8664 0.9868
vt 0.8554 0.9899
vt 0.7788 0.8554
vt 0.8047 0.8063
vt 0.7931 0.9372
vt 0.9522 0.5962
vt 0.9622 0.5518
vt 0.9227 0.6833
vt 0.9373 0.6397
vt 0.8835 0.7670
vt 0.9031 0.7251
vt 0.9107 0.1094
vt 0.8894 0.0685
vt 0.9438 0.1952
vt 0.9272 0.1524
vt 0.9728 0.5078
vt 0.9785 0.4692
vt 0.9754 0.3210
vt 0.9754 0.3414
vt 0.8997 0.3657
vt 0.9681 0.2827
vt 0.9556 0.2392
vt 0.8763 0.3972
vt 0.8682 0.0274
vt 0.9853 0.3949
vt 0.9777 0.4488
vt 0.9010 0.4278
vn -0.0764 -0.2665 -0.9608
vn 0.5900 0.4247 -0.6867
vn 0.5203 0.3469 -0.7803
vn 0.6920 0.1507 -0.7060
vn 0.9148 0.1394 -0.3789
vn 0.9010 0.4275 -0.0734
vn 0.9174 0.3555 -0.1786
vn 0.9886 0.1507 0.0000
vn 0.9148 0.1394 0.3789
vn 0.6956 0.4156 0.5860
vn 0.7723 0.3709 0.5157
vn 0.6990 0.1507 0.6990
vn 0.3789 0.1394 0.9148
vn 0.0851 0.3963 0.9142
vn 0.1950 0.3918 0.8991
vn 0.0046 0.1529 0.9882
vn -0.3703 0.1424 0.9179
vn -0.5734 0.3890 0.7209
vn -0.4990 0.3943 0.7716
vn -0.6948 0.1522 0.7029
vn -0.9137 0.1403 0.3813
vn -0.9184 0.3840 0.0951
vn -0.9017 0.3905 0.1856
vn -0.9885 0.1509 0.0013
vn 0.3129 0.8342 0.4541
vn 0.3887 0.9025 -0.1854
vn 0.7693 0.5541 -0.3180
vn 0.4895 0.5863 0.6454
vn -0.9148 0.1394 -0.3789
vn -0.7077 0.3938 -0.5866
vn -0.7690 0.3729 -0.5191
vn -0.6920 0.1507 -0.7060
vn 0.0764 -0.2665 -0.9608
vn -0.0826 0.4117 -0.9076
vn -0.1804 0.3567 -0.9166
vn 0.0000 -0.2853 -0.9584
vn 0.4464 0.8372 -0.3157
vn 0.6400 0.5859 -0.4971
vn 0.5053 0.5903 0.6294
vn 0.4203 0.8912 0.1706
vn 0.3449 0.6011 -0.7209
vn 0.7534 0.5574 0.3487
vn 0.1183 0.8466 -0.5189
vn -0.4070 0.9015 -0.1469
vn -0.7672 0.5551 -0.3213
vn 0.1420 0.5826 -0.8002
vn 0.5476 0.8316 0.0919
vn 0.1274 0.9086 -0.3978
vn 0.2978 0.5528 -0.7782
vn 0.8032 0.5875 0.0989
vn 0.7940 0.5936 0.1307
vn -0.4925 0.8594 -0.1369
vn 0.0000 1.0000 0.0000
vn -0.1895 0.8836 0.4281
vn -0.2613 0.8555 -0.4470
vn -0.1951 0.9066 -0.3742
vn -0.1160 0.8444 0.5231
vn -0.4475 0.8553 0.2613
vn 0.1688 0.8832 0.4376
vn -0.4193 0.8907 0.1752
vn -0.7792 0.5586 0.2842
vn -0.4475 0.5797 -0.6810
vn -0.0847 0.5885 0.8040
vn 0.7121 0.5979 0.3680
vn 0.1675 0.5978 -0.7840
vn -0.7968 0.5782 -0.1752
vn -0.3677 0.5605 0.7420
vn 0.2629 0.6014 0.7544
vn 0.6670 0.5965 -0.4464
vn 0.7642 0.5975 -0.2428
vn -0.4462 0.5961 -0.6674
vn -0.6807 0.5793 0.4483
vn 0.2639 0.5602 0.7852
vn -0.3146 0.6065 0.7302
vn -0.7239 0.6092 0.3238
vn -0.3447 0.5541 -0.7577
vn -0.7385 0.6101 -0.2869
vn -0.7957 0.5924 -0.1260
vn -0.1362 0.5828 0.8011
vn -0.2980 0.6067 -0.7369
vn -0.6359 0.5893 0.4984
vn -0.9885 0.1509 0.0005
vn -0.6974 0.1522 0.7003
vn -0.9143 0.1403 0.3800
vn 0.0002 0.1530 0.9882
vn -0.3750 0.1424 0.9160
vn -0.6920 0.1547 -0.7051
vn 0.4447 0.0904 -0.8910
vn -0.4447 0.0904 -0.8910
vn -0.6464 0.0707 -0.7596
vn -0.4879 -0.2632 -0.8322
vn 0.6920 0.1547 -0.7051
vn 0.0000 -0.6628 -0.7487
vn 0.0000 0.1740 -0.9847
vn 0.6464 0.0707 -0.7596
vn 0.4879 -0.2632 -0.8322
usemtl Material.005
s 1
f 95/1/1 30/2/2 4/3/3 87/4/4
f 94/5/5 27/6/6 6/7/7 88/8/8
f 97/9/9 36/10/10 8/11/11 89/12/12
f 98/13/13 40/14/14 10/15/15 90/16/16
f 99/17/17 43/18/18 12/19/19 91/20/20
f 100/21/21 45/22/22 14/23/23 92/24/24
f 23/25/25 49/26/26 79/27/27 73/28/28
f 101/29/29 48/30/30 16/31/31 93/32/32
f 96/33/33 33/34/34 2/35/35 86/36/36
f 10/37/15 21/38/37 67/39/38 72/40/39
f 34/41/40 33/42/34 64/43/41 80/44/42
f 20/45/43 39/46/44 78/47/45 71/48/46
f 22/49/47 46/50/48 85/51/49 84/52/50
f 8/53/11 20/45/43 71/48/46 70/54/51
f 17/55/52 50/56/53 28/57/54
f 28/57/54 50/56/53 25/58/53 19/59/55
f 20/45/43 51/60/53 52/61/53 39/46/44
f 21/38/37 52/61/53 42/62/56
f 22/49/47 51/60/53 46/50/48
f 51/60/53 25/58/53 23/25/25 46/50/48
f 24/63/57 50/56/53 53/64/53 34/41/40
f 18/65/58 53/64/53 31/66/59
f 19/59/55 37/67/60 76/68/61 77/69/62
f 12/70/19 22/49/47 84/52/50 61/71/63
f 6/72/7 27/73/6 28/57/54 19/59/55
f 87/4/4 4/3/3 27/6/6 94/5/5
f 4/74/3 30/75/2 31/66/59 17/55/52
f 86/36/36 2/35/35 30/2/2 95/1/1
f 2/76/35 33/42/34 34/41/40 18/65/58
f 93/32/32 16/31/31 33/34/34 96/33/33
f 8/53/11 36/77/10 37/67/60 20/45/43
f 88/8/8 6/7/7 36/10/10 97/9/9
f 10/37/15 40/78/14 39/46/44 21/38/37
f 89/12/12 8/11/11 40/14/14 98/13/13
f 12/70/19 43/79/18 42/62/56 22/49/47
f 90/80/16 10/81/15 43/18/18 99/17/17
f 14/82/23 45/83/22 46/50/48 23/25/25
f 91/20/20 12/19/19 45/22/22 100/21/21
f 16/84/31 48/85/30 49/26/26 24/63/57
f 92/24/24 14/23/23 48/30/30 101/29/29
f 50/56/53 49/26/26 23/25/25 25/58/53
f 49/26/26 50/56/53 24/63/57
f 37/67/60 51/60/53 20/45/43
f 51/60/53 37/67/60 19/59/55 25/58/53
f 42/62/56 52/61/53 51/60/53 22/49/47
f 39/46/44 52/61/53 21/38/37
f 31/66/59 53/64/53 50/56/53 17/55/52
f 34/41/40 53/64/53 18/65/58
f 56/86/64 57/87/65 68/88/66 75/89/67
f 58/90/68 59/91/69 77/92/62 76/93/61
f 54/94/70 55/95/71 69/96/72 74/97/73
f 82/98/74 70/99/51 71/100/46 78/101/45
f 83/102/75 72/103/39 67/104/38 66/105/76
f 60/106/77 61/107/63 84/108/50 85/109/49
f 64/110/41 65/111/78 81/112/79 80/113/42
f 62/114/80 63/115/81 73/116/28 79/117/27
f 14/82/23 23/25/25 73/28/28 63/118/81
f 42/62/56 43/79/18 83/119/75 66/120/76
f 24/63/57 34/41/40 80/44/42 81/121/79
f 30/2/2 2/35/35 55/95/71 54/94/70
f 45/22/22 12/19/19 61/107/63 60/106/77
f 40/14/14 8/11/11 70/99/51 82/98/74
f 28/57/54 27/73/6 56/122/64 75/123/67
f 43/18/18 10/81/15 72/103/39 83/102/75
f 37/67/60 36/77/10 58/124/68 76/68/61
f 48/30/30 14/23/23 63/115/81 62/114/80
f 27/6/6 4/3/3 57/87/65 56/86/64
f 46/50/48 45/83/22 60/125/77 85/51/49
f 31/66/59 30/75/2 54/126/70 74/127/73
f 33/34/34 16/31/31 65/111/78 64/110/41
f 36/10/10 6/7/7 59/91/69 58/90/68
f 21/38/37 42/62/56 66/120/76 67/39/38
f 6/72/7 19/59/55 77/69/62 59/128/69
f 39/46/44 40/78/14 82/129/74 78/47/45
f 18/65/58 31/66/59 74/127/73 69/130/72
f 4/74/3 17/55/52 68/131/66 57/132/65
f 16/84/31 24/63/57 81/121/79 65/133/78
f 17/55/52 28/57/54 75/123/67 68/131/66
f 49/26/26 48/85/30 62/134/80 79/27/27
f 2/76/35 18/65/58 69/130/72 55/135/71
f 13/136/82 92/24/24 101/29/29 47/137/29
f 11/138/83 91/20/20 100/21/21 44/139/84
f 9/140/85 90/80/16 99/17/17 41/141/86
f 7/142/12 89/12/12 98/13/13 38/143/13
f 5/144/8 88/8/8 97/9/9 35/145/9
f 15/146/87 93/32/32 96/33/33 32/147/88
f 95/1/1 29/148/89 103/149/90 104/150/91
f 3/151/92 87/4/4 94/5/5 26/152/5
f 86/36/36 95/1/1 104/150/91 106/153/93
f 47/137/29 101/29/29 93/32/32 15/146/87
f 44/139/84 100/21/21 92/24/24 13/136/82
f 41/141/86 99/17/17 91/20/20 11/138/83
f 38/143/13 98/13/13 90/16/16 9/154/85
f 35/145/9 97/9/9 89/12/12 7/142/12
f 26/152/5 94/5/5 88/8/8 5/144/8
f 29/148/89 95/1/1 87/4/4 3/151/92
f 1/155/94 106/153/93 104/150/91 103/149/90
f 102/156/95 105/157/96 106/153/93 1/155/94
f 32/147/88 96/33/33 105/157/96 102/156/95
f 96/33/33 86/36/36 106/153/93 105/157/96
