# Blender v2.77 (sub 0) OBJ File: 'miscminiprops_v6g.blend'
# www.blender.org
mtllib shellLO2.mtl
o shellLO
v 0.094013 0.039276 0.250116
v -0.000000 0.058280 0.336685
v 0.126860 0.026884 0.005197
v 0.281551 0.016754 0.125454
v 0.184078 0.002067 -0.126188
v 0.364188 0.013852 0.054316
v -0.094013 0.039276 0.250116
v -0.012164 0.073211 0.412691
v -0.364188 0.013852 0.054316
v -0.184078 0.002067 -0.126188
v -0.281551 0.016754 0.125454
v -0.126860 0.026884 0.005197
v 0.000000 -0.029989 -0.333443
v 0.000000 0.191062 0.395433
v 0.000000 0.085923 0.447106
v 0.000000 0.183615 0.148621
v 0.000000 0.015295 0.047150
v 0.000000 0.119532 0.611463
v 0.000000 -0.007218 -0.095555
v 0.000000 0.071289 0.410459
v 0.000000 0.134954 0.648251
v 0.000000 0.189982 0.361552
v 0.000000 0.195139 0.609507
v 0.000000 0.091133 0.653552
v 0.000000 0.108767 -0.150865
v 0.000000 0.151204 -0.010005
v 0.012164 0.073211 0.412691
v 0.000000 0.087389 -0.209490
v 0.000000 0.027375 0.181705
v -0.248938 0.001479 -0.212663
v -0.534134 0.064057 0.101781
v -0.303145 0.080638 -0.089315
v -0.309040 0.092241 0.109165
v -0.432864 0.075279 0.110350
v -0.225442 0.161472 0.492468
v -0.182215 0.050192 0.449420
v -0.090875 0.063782 0.470027
v -0.079927 0.190744 0.305574
v 0.248938 0.001479 -0.212663
v -0.120867 0.042577 0.582028
v -0.445348 0.069446 0.237120
v 0.534134 0.064057 0.101781
v -0.106349 0.160543 0.087614
v 0.303145 0.080638 -0.089315
v -0.403005 0.009630 0.217161
v -0.376895 0.080290 0.328779
v -0.288113 0.117115 0.268128
v -0.534923 -0.034243 0.221393
v 0.309040 0.092241 0.109165
v -0.182054 -0.039537 -0.315154
v 0.432864 0.075279 0.110350
v 0.225442 0.161472 0.492468
v -0.473094 0.029682 0.383150
v -0.330919 0.126712 0.489143
v -0.206155 0.131515 0.112414
v 0.182215 0.050192 0.449420
v -0.217396 0.153510 0.301325
v 0.090875 0.063782 0.470027
v 0.079927 0.190744 0.305574
v 0.120867 0.042577 0.582028
v 0.445348 0.069446 0.237120
v 0.106349 0.160543 0.087614
v -0.147616 0.180909 0.358466
v 0.403005 0.009630 0.217161
v 0.376895 0.080290 0.328779
v 0.288113 0.117115 0.268128
v 0.534923 -0.034243 0.221393
v 0.182054 -0.039537 -0.315154
v 0.473094 0.029682 0.383150
v -0.022982 0.008315 -0.046281
v 0.330919 0.126712 0.489143
v 0.206155 0.131515 0.112414
v 0.217396 0.153510 0.301325
v -0.401028 0.022281 0.484629
v -0.361578 0.021229 0.301966
v -0.250519 0.024908 0.303002
v 0.147616 0.180909 0.358466
v 0.022982 0.008315 -0.046281
v -0.045663 0.108813 0.663220
v -0.109302 0.194724 0.605323
v -0.009218 0.190672 0.376433
v -0.308259 -0.008733 0.514359
v 0.401028 0.022281 0.484629
v -0.108203 0.086070 -0.203110
v -0.027944 0.182942 0.101303
v 0.361578 0.021229 0.301966
v -0.234995 0.123539 0.601138
v 0.250519 0.024908 0.303002
v 0.045663 0.108813 0.663220
v 0.109302 0.194724 0.605323
v 0.009218 0.190672 0.376433
v 0.308259 -0.008733 0.514359
v 0.108203 0.086070 -0.203110
v 0.027944 0.182942 0.101303
v 0.234995 0.123539 0.601138
vt 0.5961 0.8482
vt 0.5603 0.9015
vt 0.5596 0.8746
vt 0.6476 0.6580
vt 0.6653 0.6960
vt 0.5890 0.6474
vt 0.5616 0.9818
vt 0.5480 0.9646
vt 0.5547 0.9129
vt 0.5790 0.7251
vt 0.5687 0.7407
vt 0.2689 0.6804
vt 0.1988 0.6342
vt 0.2039 0.5978
vt 0.4124 0.9006
vt 0.4358 0.8436
vt 0.4738 0.8503
vt 0.0055 0.8058
vt 0.0209 0.8045
vt 0.0130 0.8219
vt 0.5459 0.9804
vt 0.5667 0.8200
vt 0.4406 0.9174
vt 0.1114 0.7968
vt 0.1226 0.7958
vt 0.1179 0.7993
vt 0.2072 0.7792
vt 0.2450 0.7854
vt 0.1928 0.7898
vt 0.0435 0.8794
vt 0.0494 0.8354
vt 0.5563 0.9001
vt 0.3619 0.7092
vt 0.3725 0.7745
vt 0.3085 0.7439
vt 0.3146 0.8155
vt 0.3136 0.7795
vt 0.2015 0.6798
vt 0.5850 0.7428
vt 0.4462 0.7574
vt 0.5190 0.7065
vt 0.4717 0.7867
vt 0.5727 0.7735
vt 0.5312 0.7538
vt 0.6178 0.7650
vt 0.1174 0.7932
vt 0.3367 0.8661
vt 0.2363 0.9772
vt 0.2863 0.8847
vt 0.2200 0.8968
vt 0.2251 0.9422
vt 0.0580 0.9351
vt 0.0833 0.8756
vt 0.6991 0.7901
vt 0.6670 0.8120
vt 0.6417 0.7223
vt 0.4909 0.9059
vt 0.5311 0.8398
vt 0.5234 0.9158
vt 0.1528 0.6343
vt 0.1434 0.8209
vt 0.6182 0.9223
vt 0.5842 0.9237
vt 0.5304 0.9778
vt 0.5521 0.9004
vt 0.0703 0.7238
vt 0.0438 0.7691
vt 0.0304 0.7268
vt 0.5086 0.9475
vt 0.4716 0.9623
vt 0.0752 0.6876
vt 0.1464 0.6925
vt 0.1364 0.7207
vt 0.1797 0.9499
vt 0.6488 0.8729
vt 0.6639 0.9463
vt 0.2167 0.8238
vt 0.2088 0.7978
vt 0.2930 0.7813
vt 0.1225 0.6605
vt 0.4256 0.8127
vt 0.1455 0.9292
vt 0.1636 0.8936
vt 0.3800 0.8079
vt 0.3830 0.7586
vt 0.5029 0.6750
vt 0.7600 0.8073
vt 0.7503 0.8557
vt 0.2011 0.7179
vt 0.7050 0.8488
vt 0.6873 0.8761
vt 0.1004 0.6247
vt 0.3952 0.8647
vt 0.7211 0.9069
vt 0.6955 0.9372
vt 0.2106 0.7523
vt 0.0911 0.9497
vt 0.0942 0.9105
vt 0.5905 0.9581
vt 0.6224 0.9818
vt 0.1389 0.7675
vt 0.1194 0.7464
vt 0.2132 0.8592
vt 0.1297 0.9682
vt 0.1489 0.8674
vt 0.3732 0.8406
vt 0.1278 0.8450
vt 0.1867 0.9966
vt 0.0101 0.7887
vt 0.3217 0.6902
vt 0.0353 0.6695
vt 0.0655 0.6495
vt 0.1518 0.5870
vt 0.0448 0.8024
vt 0.5297 0.6427
vn -0.0584 -0.9924 0.1087
vn -0.0780 -0.9753 0.2068
vn 0.0000 -0.9809 0.1945
vn 0.4570 -0.5277 -0.7160
vn 0.7034 -0.4632 -0.5391
vn -0.0000 -0.4245 -0.9054
vn -0.0379 -0.3498 0.9361
vn -0.0000 -1.0000 0.0071
vn 0.0000 -0.9755 0.2198
vn 0.0000 -0.9946 0.1043
vn -0.2133 -0.9695 0.1210
vn 0.3301 0.8671 -0.3730
vn 0.2183 0.9727 0.0787
vn 0.9296 0.3402 -0.1417
vn -0.7820 -0.3447 0.5192
vn 0.0268 -0.9981 0.0560
vn 0.0960 -0.9951 0.0244
vn 0.0000 -0.9298 0.3680
vn 0.0000 0.4162 0.9093
vn 0.0379 -0.3498 0.9361
vn 0.0000 -0.9926 0.1212
vn -0.0936 -0.7779 0.6214
vn 0.0000 0.9998 -0.0209
vn 0.0000 0.9995 -0.0302
vn 0.0178 0.9996 -0.0236
vn -0.0098 0.9852 -0.1709
vn 0.0000 0.9595 -0.2819
vn 0.0000 0.9983 -0.0591
vn -0.7149 0.0826 0.6943
vn -0.2084 0.8451 0.4923
vn -0.0000 -0.9655 0.2603
vn 0.1781 0.8539 -0.4890
vn -0.1781 0.8539 -0.4890
vn 0.0000 0.8475 -0.5308
vn 0.2380 0.9675 -0.0858
vn 0.2133 -0.9695 0.1210
vn -0.1181 -0.9898 -0.0799
vn -0.0019 -0.9951 0.0993
vn 0.0632 -0.9973 0.0377
vn -0.0000 -0.9955 0.0945
vn 0.0072 -0.9952 0.0971
vn -0.0072 -0.9952 0.0971
vn -0.0178 0.9996 -0.0236
vn -0.7034 -0.4632 -0.5391
vn -0.9296 0.3402 -0.1417
vn -0.3301 0.8671 -0.3730
vn -0.2380 0.9675 -0.0858
vn -0.2183 0.9727 0.0787
vn -0.4538 0.8748 0.1698
vn 0.1181 -0.9898 -0.0799
vn -0.0632 -0.9973 0.0377
vn 0.0019 -0.9951 0.0993
vn 0.1984 -0.9712 0.1317
vn 0.0584 -0.9924 0.1087
vn 0.2371 -0.9696 0.0610
vn 0.4969 0.8673 0.0279
vn -0.1003 0.9933 -0.0579
vn -0.1984 -0.9712 0.1317
vn -0.2371 -0.9696 0.0610
vn 0.0780 -0.9753 0.2068
vn 0.4538 0.8748 0.1698
vn 0.2084 0.8451 0.4922
vn 0.7149 0.0826 0.6943
vn 0.0369 -0.9432 0.3303
vn 0.4824 0.6735 0.5601
vn 0.4150 0.9032 -0.1095
vn 0.3454 0.9326 -0.1050
vn -0.4969 0.8673 0.0279
vn -0.0960 -0.9951 0.0244
vn 0.0936 -0.7779 0.6214
vn -0.2745 0.9441 -0.1828
vn 0.0098 0.9852 -0.1709
vn 0.0000 0.9516 -0.3073
vn 0.4318 0.9009 0.0431
vn 0.1934 -0.9761 0.0992
vn -0.4318 0.9009 0.0431
vn -0.4150 0.9032 -0.1095
vn -0.8014 -0.5836 0.1309
vn 0.8014 -0.5836 0.1309
vn 0.3352 0.9263 -0.1723
vn -0.1934 -0.9761 0.0992
vn -0.0268 -0.9981 0.0560
vn 0.8306 -0.1157 0.5448
vn -0.8306 -0.1157 0.5448
vn 0.7820 -0.3447 0.5192
vn 0.2745 0.9441 -0.1828
vn -0.4824 0.6735 0.5601
vn -0.0369 -0.9432 0.3303
vn 0.1003 0.9933 -0.0579
vn 0.2471 0.9673 -0.0578
vn -0.3352 0.9263 -0.1723
vn -0.3454 0.9326 -0.1050
vn -0.4570 -0.5277 -0.7160
vn -0.2471 0.9673 -0.0578
vn 0.0000 0.8777 0.4792
usemtl Material.002
s 1
f 1/1/1 27/2/2 2/3/3
f 68/4/4 39/5/5 13/6/6
f 89/7/7 18/8/8 15/9/9
f 13/6/6 19/10/10 70/11/11
f 44/12/12 51/13/13 42/14/14
f 74/15/15 75/16/16 76/17/17
f 24/18/18 21/19/19 79/20/20
f 24/21/18 18/8/8 89/7/7
f 1/1/1 2/3/3 29/22/21
f 82/23/22 74/15/15 76/17/17
f 14/24/23 22/25/24 81/26/25
f 94/27/26 26/28/27 16/29/28
f 87/30/29 79/20/20 80/31/30
f 27/2/2 20/32/31 2/3/3
f 68/33/4 13/34/6 93/35/32
f 13/34/6 84/36/33 28/37/34
f 44/12/12 93/35/32 49/38/35
f 13/6/6 78/39/36 19/10/10
f 9/40/37 10/41/38 11/42/39
f 89/7/7 15/9/9 27/2/2
f 1/1/1 17/43/40 78/39/36
f 11/42/39 12/44/41 76/17/17
f 13/6/6 3/45/42 78/39/36
f 91/46/43 16/29/28 22/25/24
f 30/47/44 31/48/45 32/49/46
f 33/50/47 32/49/46 34/51/48
f 82/52/22 87/30/29 35/53/49
f 11/42/39 10/41/38 12/44/41
f 35/53/49 87/30/29 80/31/30
f 6/54/50 4/55/51 5/56/52
f 36/57/53 7/58/54 37/59/55
f 51/13/13 49/38/35 61/60/56
f 80/31/30 81/26/25 38/61/57
f 56/62/58 58/63/59 1/1/1
f 79/64/20 37/59/55 8/65/60
f 52/66/61 90/67/62 95/68/63
f 40/69/64 79/64/20 87/70/29
f 71/71/65 66/72/66 73/73/67
f 8/65/60 37/59/55 7/58/54
f 13/6/6 5/56/52 3/45/42
f 34/51/48 41/74/68 33/50/47
f 88/75/69 92/76/70 56/62/58
f 43/77/71 85/78/72 84/36/33
f 28/37/34 25/79/73 93/35/32
f 65/80/74 49/38/35 66/72/66
f 45/81/75 11/42/39 75/16/16
f 46/82/76 47/83/77 33/50/47
f 9/40/37 48/84/78 31/85/45
f 10/41/38 9/40/37 30/86/44
f 6/54/50 42/87/14 67/88/79
f 76/17/17 36/57/53 82/23/22
f 72/89/80 49/38/35 93/35/32
f 64/90/81 86/91/82 4/55/51
f 61/60/56 65/80/74 69/92/83
f 86/91/82 88/75/69 4/55/51
f 81/26/25 85/78/72 38/61/57
f 53/93/84 75/16/16 74/15/15
f 12/44/41 7/58/54 76/17/17
f 36/57/53 40/69/64 87/70/29
f 89/7/7 27/2/2 58/63/59
f 69/94/83 83/95/85 86/91/82
f 62/96/86 93/35/32 94/27/26
f 46/82/76 74/97/15 54/98/87
f 5/56/52 39/5/5 6/54/50
f 60/99/88 95/100/63 89/7/7
f 91/46/43 59/101/89 94/27/26
f 7/58/54 36/57/53 76/17/17
f 62/96/86 59/101/89 77/102/90
f 6/54/50 64/90/81 4/55/51
f 55/103/91 33/50/47 47/83/77
f 41/74/68 53/104/84 46/82/76
f 72/89/80 73/73/67 66/72/66
f 56/62/58 95/100/63 60/99/88
f 78/39/36 17/43/40 19/10/10
f 55/103/91 47/83/77 57/105/92
f 73/73/67 77/102/90 52/66/61
f 75/16/16 11/42/39 76/17/17
f 35/53/49 54/98/87 82/52/22
f 20/32/31 15/9/9 8/65/60
f 44/12/12 68/33/4 93/35/32
f 32/49/46 84/36/33 50/106/93
f 93/35/32 26/28/27 94/27/26
f 57/105/92 35/53/49 63/107/94
f 43/77/71 84/36/33 55/103/91
f 62/96/86 77/102/90 73/73/67
f 4/55/51 88/75/69 3/45/42
f 48/108/78 34/51/48 31/48/45
f 53/104/84 41/74/68 48/108/78
f 83/95/85 88/75/69 86/91/82
f 24/18/18 89/109/7 21/19/19
f 90/67/62 59/101/89 91/46/43
f 33/50/47 41/74/68 46/82/76
f 54/98/87 35/53/49 57/105/92
f 95/68/63 90/67/62 89/109/7
f 49/38/35 51/13/13 44/12/12
f 39/110/5 44/12/12 42/14/14
f 87/70/29 82/23/22 36/57/53
f 32/49/46 50/106/93 30/47/44
f 43/77/71 57/105/92 63/107/94
f 27/2/2 1/1/1 58/63/59
f 92/111/70 52/66/61 95/68/63
f 65/80/74 71/71/65 83/112/85
f 12/44/41 70/11/11 7/58/54
f 82/52/22 54/98/87 74/97/15
f 92/111/70 83/112/85 71/71/65
f 30/86/44 9/40/37 31/85/45
f 60/99/88 58/63/59 56/62/58
f 92/76/70 88/75/69 83/95/85
f 63/107/94 35/53/49 80/31/30
f 4/55/51 3/45/42 5/56/52
f 3/45/42 88/75/69 1/1/1
f 48/108/78 41/74/68 34/51/48
f 40/69/64 36/57/53 37/59/55
f 62/96/86 94/27/26 59/101/89
f 54/98/87 47/83/77 46/82/76
f 20/32/31 27/2/2 15/9/9
f 77/102/90 59/101/89 90/67/62
f 28/37/34 84/36/33 25/79/73
f 95/100/63 56/62/58 92/76/70
f 45/81/75 48/84/78 9/40/37
f 54/98/87 57/105/92 47/83/77
f 64/90/81 67/88/79 69/94/83
f 43/77/71 55/103/91 57/105/92
f 77/102/90 90/67/62 52/66/61
f 3/45/42 1/1/1 78/39/36
f 67/113/79 51/13/13 61/60/56
f 9/40/37 11/42/39 45/81/75
f 1/1/1 88/75/69 56/62/58
f 45/81/75 53/93/84 48/84/78
f 55/103/91 84/36/33 33/50/47
f 14/24/23 91/46/43 22/25/24
f 62/96/86 72/89/80 93/35/32
f 45/81/75 75/16/16 53/93/84
f 69/92/83 67/113/79 61/60/56
f 79/64/20 40/69/64 37/59/55
f 64/90/81 69/94/83 86/91/82
f 39/5/5 42/87/14 6/54/50
f 74/97/15 46/82/76 53/104/84
f 71/71/65 73/73/67 52/66/61
f 32/49/46 31/48/45 34/51/48
f 72/89/80 66/72/66 49/38/35
f 43/77/71 63/107/94 38/61/57
f 52/66/61 92/111/70 71/71/65
f 83/112/85 69/92/83 65/80/74
f 64/90/81 6/54/50 67/88/79
f 13/34/6 28/37/34 93/35/32
f 67/113/79 42/14/14 51/13/13
f 43/77/71 38/61/57 85/78/72
f 63/107/94 80/31/30 38/61/57
f 32/49/46 33/50/47 84/36/33
f 24/21/18 79/64/20 18/8/8
f 7/58/54 2/3/3 8/65/60
f 84/36/33 26/28/27 25/79/73
f 90/67/62 14/24/23 23/114/95
f 62/96/86 73/73/67 72/89/80
f 13/6/6 39/5/5 5/56/52
f 21/19/19 80/31/30 79/20/20
f 12/44/41 13/6/6 70/11/11
f 8/65/60 2/3/3 20/32/31
f 71/71/65 65/80/74 66/72/66
f 44/12/12 39/110/5 68/33/4
f 17/43/40 7/58/54 70/11/11
f 70/11/11 19/10/10 17/43/40
f 85/78/72 16/29/28 26/28/27
f 81/26/25 16/29/28 85/78/72
f 49/38/35 65/80/74 61/60/56
f 15/9/9 79/64/20 8/65/60
f 80/31/30 14/24/23 81/26/25
f 90/67/62 21/19/19 89/109/7
f 10/41/38 13/6/6 12/44/41
f 50/115/93 13/6/6 30/86/44
f 89/7/7 58/63/59 60/99/88
f 50/106/93 84/36/33 13/34/6
f 90/67/62 23/114/95 21/19/19
f 80/31/30 23/114/95 14/24/23
f 15/9/9 18/8/8 79/64/20
f 81/26/25 22/25/24 16/29/28
f 17/43/40 29/22/21 7/58/54
f 21/19/19 23/114/95 80/31/30
f 90/67/62 91/46/43 14/24/23
f 84/36/33 85/78/72 26/28/27
f 7/58/54 29/22/21 2/3/3
f 13/6/6 10/41/38 30/86/44
f 93/35/32 25/79/73 26/28/27
f 91/46/43 94/27/26 16/29/28
f 1/1/1 29/22/21 17/43/40
